<svg width="256" height="128" viewBox="0 0 256 128" xmlns="http://www.w3.org/2000/svg">
  <!-- Main background -->
  <rect width="256" height="128" rx="8" ry="8" fill="#f1f5f9"/>

  <!-- Window Header -->
  <path d="M 8 0 H 248 a 8 8 0 0 1 8 8 V 24 H 0 V 8 a 8 8 0 0 1 8 -8 Z" fill="#e2e8f0"/>
  <circle cx="15" cy="12" r="4" fill="#f87171"/>
  <circle cx="27" cy="12" r="4" fill="#fbbf24"/>
  <circle cx="39" cy="12" r="4" fill="#34d399"/>

  <!-- Content Area -->
  <g transform="translate(16, 36)">
    <!-- Left Text Block -->
    <text x="0" y="12" font-family="sans-serif" font-size="16" font-weight="bold" fill="#1e293b">Become a</text>
    <text x="0" y="32" font-family="sans-serif" font-size="16" font-weight="bold" fill="#1e293b">
      <tspan dx="-4" dy="0">→</tspan> Partner!
    </text>
    
    <text x="0" y="52" font-family="sans-serif" font-size="9" fill="#475569">
      <tspan>•</tspan> Reach Our Audience
    </text>
    <text x="0" y="64" font-family="sans-serif" font-size="9" fill="#475569">
      <tspan>•</tspan> Prominent Visibility
    </text>
    <text x="0" y="76" font-family="sans-serif" font-size="9" fill="#475569">
      <tspan>•</tspan> Join Industry Leaders
    </text>

    <!-- Separator -->
    <text x="118" y="22" font-family="sans-serif" font-size="18" fill="#64748b" text-anchor="middle">»</text>

    <!-- Right "Logo Here" Block -->
    <rect x="130" y="0" width="100" height="80" fill="rgba(255,255,255,0.5)" stroke="#94a3b8" stroke-width="1.5" stroke-dasharray="3" rx="8" ry="8"/>
    <text x="180" y="30" font-family="sans-serif" font-size="12" font-weight="bold" text-anchor="middle" fill="#1e293b">YOUR LOGO</text>
    <text x="180" y="46" font-family="sans-serif" font-size="12" font-weight="bold" text-anchor="middle" fill="#1e293b">HERE</text>
    <text x="180" y="66" font-family="sans-serif" font-size="8" text-anchor="middle" fill="#64748b" letter-spacing="0.5">ADVERTISING SPOT</text>
  </g>
</svg>